<svg width="600" height="360" xmlns="http://www.w3.org/2000/svg">
  <rect x="0" y="0" width="20" height="20" fill="azure"/>
  <rect x="20" y="0" width="20" height="20" fill="azure"/>
  <rect x="40" y="0" width="20" height="20" fill="azure"/>
  <rect x="60" y="0" width="20" height="20" fill="azure"/>
  <rect x="80" y="0" width="20" height="20" fill="azure"/>
  <rect x="100" y="0" width="20" height="20" fill="azure"/>
  <rect x="120" y="0" width="20" height="20" fill="azure"/>
  <rect x="140" y="0" width="20" height="20" fill="azure"/>
  <rect x="160" y="0" width="20" height="20" fill="azure"/>
  <rect x="180" y="0" width="20" height="20" fill="azure"/>
  <rect x="200" y="0" width="20" height="20" fill="azure"/>
  <rect x="220" y="0" width="20" height="20" fill="azure"/>
  <rect x="240" y="0" width="20" height="20" fill="azure"/>
  <rect x="260" y="0" width="20" height="20" fill="azure"/>
  <rect x="280" y="0" width="20" height="20" fill="azure"/>
  <rect x="300" y="0" width="20" height="20" fill="azure"/>
  <rect x="320" y="0" width="20" height="20" fill="azure"/>
  <rect x="340" y="0" width="20" height="20" fill="azure"/>
  <rect x="360" y="0" width="20" height="20" fill="azure"/>
  <rect x="380" y="0" width="20" height="20" fill="azure"/>
  <rect x="400" y="0" width="20" height="20" fill="azure"/>
  <rect x="420" y="0" width="20" height="20" fill="azure"/>
  <rect x="440" y="0" width="20" height="20" fill="azure"/>
  <rect x="460" y="0" width="20" height="20" fill="azure"/>
  <rect x="480" y="0" width="20" height="20" fill="azure"/>
  <rect x="500" y="0" width="20" height="20" fill="azure"/>
  <rect x="520" y="0" width="20" height="20" fill="azure"/>
  <rect x="540" y="0" width="20" height="20" fill="azure"/>
  <rect x="560" y="0" width="20" height="20" fill="azure"/>
  <rect x="580" y="0" width="20" height="20" fill="azure"/>
  <rect x="0" y="20" width="20" height="20" fill="azure"/>
  <rect x="20" y="20" width="20" height="20" fill="azure"/>
  <rect x="40" y="20" width="20" height="20" fill="azure"/>
  <rect x="60" y="20" width="20" height="20" fill="azure"/>
  <rect x="80" y="20" width="20" height="20" fill="azure"/>
  <rect x="100" y="20" width="20" height="20" fill="azure"/>
  <rect x="120" y="20" width="20" height="20" fill="azure"/>
  <rect x="140" y="20" width="20" height="20" fill="azure"/>
  <rect x="160" y="20" width="20" height="20" fill="azure"/>
  <rect x="180" y="20" width="20" height="20" fill="azure"/>
  <rect x="200" y="20" width="20" height="20" fill="azure"/>
  <rect x="220" y="20" width="20" height="20" fill="azure"/>
  <rect x="240" y="20" width="20" height="20" fill="azure"/>
  <rect x="260" y="20" width="20" height="20" fill="azure"/>
  <rect x="280" y="20" width="20" height="20" fill="azure"/>
  <rect x="300" y="20" width="20" height="20" fill="azure"/>
  <rect x="320" y="20" width="20" height="20" fill="azure"/>
  <rect x="340" y="20" width="20" height="20" fill="azure"/>
  <rect x="360" y="20" width="20" height="20" fill="azure"/>
  <rect x="380" y="20" width="20" height="20" fill="azure"/>
  <rect x="400" y="20" width="20" height="20" fill="azure"/>
  <rect x="420" y="20" width="20" height="20" fill="azure"/>
  <rect x="440" y="20" width="20" height="20" fill="azure"/>
  <rect x="460" y="20" width="20" height="20" fill="azure"/>
  <rect x="480" y="20" width="20" height="20" fill="azure"/>
  <rect x="500" y="20" width="20" height="20" fill="azure"/>
  <rect x="520" y="20" width="20" height="20" fill="azure"/>
  <rect x="540" y="20" width="20" height="20" fill="azure"/>
  <rect x="560" y="20" width="20" height="20" fill="azure"/>
  <rect x="580" y="20" width="20" height="20" fill="azure"/>
  <rect x="0" y="40" width="20" height="20" fill="azure"/>
  <rect x="20" y="40" width="20" height="20" fill="azure"/>
  <rect x="40" y="40" width="20" height="20" fill="azure"/>
  <rect x="60" y="40" width="20" height="20" fill="azure"/>
  <rect x="80" y="40" width="20" height="20" fill="azure"/>
  <rect x="100" y="40" width="20" height="20" fill="azure"/>
  <rect x="120" y="40" width="20" height="20" fill="azure"/>
  <rect x="140" y="40" width="20" height="20" fill="azure"/>
  <rect x="160" y="40" width="20" height="20" fill="azure"/>
  <rect x="180" y="40" width="20" height="20" fill="azure"/>
  <rect x="200" y="40" width="20" height="20" fill="azure"/>
  <rect x="220" y="40" width="20" height="20" fill="azure"/>
  <rect x="240" y="40" width="20" height="20" fill="azure"/>
  <rect x="260" y="40" width="20" height="20" fill="azure"/>
  <rect x="280" y="40" width="20" height="20" fill="azure"/>
  <rect x="300" y="40" width="20" height="20" fill="azure"/>
  <rect x="320" y="40" width="20" height="20" fill="azure"/>
  <rect x="340" y="40" width="20" height="20" fill="azure"/>
  <rect x="360" y="40" width="20" height="20" fill="azure"/>
  <rect x="380" y="40" width="20" height="20" fill="azure"/>
  <rect x="400" y="40" width="20" height="20" fill="azure"/>
  <rect x="420" y="40" width="20" height="20" fill="azure"/>
  <rect x="440" y="40" width="20" height="20" fill="azure"/>
  <rect x="460" y="40" width="20" height="20" fill="azure"/>
  <rect x="480" y="40" width="20" height="20" fill="azure"/>
  <rect x="500" y="40" width="20" height="20" fill="azure"/>
  <rect x="520" y="40" width="20" height="20" fill="azure"/>
  <rect x="540" y="40" width="20" height="20" fill="azure"/>
  <rect x="560" y="40" width="20" height="20" fill="azure"/>
  <rect x="580" y="40" width="20" height="20" fill="azure"/>
  <rect x="0" y="60" width="20" height="20" fill="azure"/>
  <rect x="20" y="60" width="20" height="20" fill="azure"/>
  <rect x="40" y="60" width="20" height="20" fill="azure"/>
  <rect x="60" y="60" width="20" height="20" fill="azure"/>
  <rect x="80" y="60" width="20" height="20" fill="azure"/>
  <rect x="100" y="60" width="20" height="20" fill="azure"/>
  <rect x="120" y="60" width="20" height="20" fill="azure"/>
  <rect x="140" y="60" width="20" height="20" fill="azure"/>
  <rect x="160" y="60" width="20" height="20" fill="azure"/>
  <rect x="180" y="60" width="20" height="20" fill="azure"/>
  <rect x="200" y="60" width="20" height="20" fill="azure"/>
  <rect x="220" y="60" width="20" height="20" fill="azure"/>
  <rect x="240" y="60" width="20" height="20" fill="azure"/>
  <rect x="260" y="60" width="20" height="20" fill="azure"/>
  <rect x="280" y="60" width="20" height="20" fill="azure"/>
  <rect x="300" y="60" width="20" height="20" fill="azure"/>
  <rect x="320" y="60" width="20" height="20" fill="azure"/>
  <rect x="340" y="60" width="20" height="20" fill="azure"/>
  <rect x="360" y="60" width="20" height="20" fill="azure"/>
  <rect x="380" y="60" width="20" height="20" fill="azure"/>
  <rect x="400" y="60" width="20" height="20" fill="azure"/>
  <rect x="420" y="60" width="20" height="20" fill="azure"/>
  <rect x="440" y="60" width="20" height="20" fill="azure"/>
  <rect x="460" y="60" width="20" height="20" fill="azure"/>
  <rect x="480" y="60" width="20" height="20" fill="azure"/>
  <rect x="500" y="60" width="20" height="20" fill="azure"/>
  <rect x="520" y="60" width="20" height="20" fill="azure"/>
  <rect x="540" y="60" width="20" height="20" fill="azure"/>
  <rect x="560" y="60" width="20" height="20" fill="azure"/>
  <rect x="580" y="60" width="20" height="20" fill="azure"/>
  <rect x="0" y="80" width="20" height="20" fill="azure"/>
  <rect x="20" y="80" width="20" height="20" fill="azure"/>
  <rect x="40" y="80" width="20" height="20" fill="azure"/>
  <rect x="60" y="80" width="20" height="20" fill="azure"/>
  <rect x="80" y="80" width="20" height="20" fill="azure"/>
  <rect x="100" y="80" width="20" height="20" fill="azure"/>
  <rect x="120" y="80" width="20" height="20" fill="azure"/>
  <rect x="140" y="80" width="20" height="20" fill="azure"/>
  <rect x="160" y="80" width="20" height="20" fill="azure"/>
  <rect x="180" y="80" width="20" height="20" fill="azure"/>
  <rect x="200" y="80" width="20" height="20" fill="azure"/>
  <rect x="220" y="80" width="20" height="20" fill="azure"/>
  <rect x="240" y="80" width="20" height="20" fill="azure"/>
  <rect x="260" y="80" width="20" height="20" fill="azure"/>
  <rect x="280" y="80" width="20" height="20" fill="azure"/>
  <rect x="300" y="80" width="20" height="20" fill="azure"/>
  <rect x="320" y="80" width="20" height="20" fill="azure"/>
  <rect x="340" y="80" width="20" height="20" fill="azure"/>
  <rect x="360" y="80" width="20" height="20" fill="azure"/>
  <rect x="380" y="80" width="20" height="20" fill="azure"/>
  <rect x="400" y="80" width="20" height="20" fill="azure"/>
  <rect x="420" y="80" width="20" height="20" fill="azure"/>
  <rect x="440" y="80" width="20" height="20" fill="azure"/>
  <rect x="460" y="80" width="20" height="20" fill="azure"/>
  <rect x="480" y="80" width="20" height="20" fill="azure"/>
  <rect x="500" y="80" width="20" height="20" fill="azure"/>
  <rect x="520" y="80" width="20" height="20" fill="azure"/>
  <rect x="540" y="80" width="20" height="20" fill="azure"/>
  <rect x="560" y="80" width="20" height="20" fill="azure"/>
  <rect x="580" y="80" width="20" height="20" fill="azure"/>
  <rect x="0" y="100" width="20" height="20" fill="azure"/>
  <rect x="20" y="100" width="20" height="20" fill="azure"/>
  <rect x="40" y="100" width="20" height="20" fill="azure"/>
  <rect x="60" y="100" width="20" height="20" fill="azure"/>
  <rect x="80" y="100" width="20" height="20" fill="azure"/>
  <rect x="100" y="100" width="20" height="20" fill="azure"/>
  <rect x="120" y="100" width="20" height="20" fill="azure"/>
  <rect x="140" y="100" width="20" height="20" fill="azure"/>
  <rect x="160" y="100" width="20" height="20" fill="azure"/>
  <rect x="180" y="100" width="20" height="20" fill="azure"/>
  <rect x="200" y="100" width="20" height="20" fill="azure"/>
  <rect x="220" y="100" width="20" height="20" fill="azure"/>
  <rect x="240" y="100" width="20" height="20" fill="azure"/>
  <rect x="260" y="100" width="20" height="20" fill="azure"/>
  <rect x="280" y="100" width="20" height="20" fill="azure"/>
  <rect x="300" y="100" width="20" height="20" fill="azure"/>
  <rect x="320" y="100" width="20" height="20" fill="azure"/>
  <rect x="340" y="100" width="20" height="20" fill="azure"/>
  <rect x="360" y="100" width="20" height="20" fill="azure"/>
  <rect x="380" y="100" width="20" height="20" fill="azure"/>
  <rect x="400" y="100" width="20" height="20" fill="azure"/>
  <rect x="420" y="100" width="20" height="20" fill="azure"/>
  <rect x="440" y="100" width="20" height="20" fill="azure"/>
  <rect x="460" y="100" width="20" height="20" fill="azure"/>
  <rect x="480" y="100" width="20" height="20" fill="azure"/>
  <rect x="500" y="100" width="20" height="20" fill="azure"/>
  <rect x="520" y="100" width="20" height="20" fill="azure"/>
  <rect x="540" y="100" width="20" height="20" fill="azure"/>
  <rect x="560" y="100" width="20" height="20" fill="azure"/>
  <rect x="580" y="100" width="20" height="20" fill="azure"/>
  <rect x="0" y="120" width="20" height="20" fill="azure"/>
  <rect x="20" y="120" width="20" height="20" fill="azure"/>
  <rect x="40" y="120" width="20" height="20" fill="azure"/>
  <rect x="60" y="120" width="20" height="20" fill="azure"/>
  <rect x="80" y="120" width="20" height="20" fill="azure"/>
  <rect x="100" y="120" width="20" height="20" fill="azure"/>
  <rect x="120" y="120" width="20" height="20" fill="azure"/>
  <rect x="140" y="120" width="20" height="20" fill="azure"/>
  <rect x="160" y="120" width="20" height="20" fill="azure"/>
  <rect x="180" y="120" width="20" height="20" fill="azure"/>
  <rect x="200" y="120" width="20" height="20" fill="azure"/>
  <rect x="220" y="120" width="20" height="20" fill="azure"/>
  <rect x="240" y="120" width="20" height="20" fill="azure"/>
  <rect x="260" y="120" width="20" height="20" fill="azure"/>
  <rect x="280" y="120" width="20" height="20" fill="azure"/>
  <rect x="300" y="120" width="20" height="20" fill="azure"/>
  <rect x="320" y="120" width="20" height="20" fill="azure"/>
  <rect x="340" y="120" width="20" height="20" fill="azure"/>
  <rect x="360" y="120" width="20" height="20" fill="azure"/>
  <rect x="380" y="120" width="20" height="20" fill="azure"/>
  <rect x="400" y="120" width="20" height="20" fill="azure"/>
  <rect x="420" y="120" width="20" height="20" fill="azure"/>
  <rect x="440" y="120" width="20" height="20" fill="azure"/>
  <rect x="460" y="120" width="20" height="20" fill="azure"/>
  <rect x="480" y="120" width="20" height="20" fill="azure"/>
  <rect x="500" y="120" width="20" height="20" fill="azure"/>
  <rect x="520" y="120" width="20" height="20" fill="azure"/>
  <rect x="540" y="120" width="20" height="20" fill="azure"/>
  <rect x="560" y="120" width="20" height="20" fill="azure"/>
  <rect x="580" y="120" width="20" height="20" fill="azure"/>
  <rect x="0" y="140" width="20" height="20" fill="azure"/>
  <rect x="20" y="140" width="20" height="20" fill="azure"/>
  <rect x="40" y="140" width="20" height="20" fill="azure"/>
  <rect x="60" y="140" width="20" height="20" fill="azure"/>
  <rect x="80" y="140" width="20" height="20" fill="azure"/>
  <rect x="100" y="140" width="20" height="20" fill="azure"/>
  <rect x="120" y="140" width="20" height="20" fill="azure"/>
  <rect x="140" y="140" width="20" height="20" fill="azure"/>
  <rect x="160" y="140" width="20" height="20" fill="azure"/>
  <rect x="180" y="140" width="20" height="20" fill="azure"/>
  <rect x="200" y="140" width="20" height="20" fill="azure"/>
  <rect x="220" y="140" width="20" height="20" fill="azure"/>
  <rect x="240" y="140" width="20" height="20" fill="azure"/>
  <rect x="260" y="140" width="20" height="20" fill="azure"/>
  <rect x="280" y="140" width="20" height="20" fill="azure"/>
  <rect x="300" y="140" width="20" height="20" fill="azure"/>
  <rect x="320" y="140" width="20" height="20" fill="azure"/>
  <rect x="340" y="140" width="20" height="20" fill="azure"/>
  <rect x="360" y="140" width="20" height="20" fill="azure"/>
  <rect x="380" y="140" width="20" height="20" fill="azure"/>
  <rect x="400" y="140" width="20" height="20" fill="azure"/>
  <rect x="420" y="140" width="20" height="20" fill="azure"/>
  <rect x="440" y="140" width="20" height="20" fill="azure"/>
  <rect x="460" y="140" width="20" height="20" fill="azure"/>
  <rect x="480" y="140" width="20" height="20" fill="azure"/>
  <rect x="500" y="140" width="20" height="20" fill="azure"/>
  <rect x="520" y="140" width="20" height="20" fill="azure"/>
  <rect x="540" y="140" width="20" height="20" fill="azure"/>
  <rect x="560" y="140" width="20" height="20" fill="azure"/>
  <rect x="580" y="140" width="20" height="20" fill="azure"/>
  <rect x="0" y="160" width="20" height="20" fill="azure"/>
  <rect x="20" y="160" width="20" height="20" fill="azure"/>
  <rect x="40" y="160" width="20" height="20" fill="azure"/>
  <rect x="60" y="160" width="20" height="20" fill="azure"/>
  <rect x="80" y="160" width="20" height="20" fill="azure"/>
  <rect x="100" y="160" width="20" height="20" fill="azure"/>
  <rect x="120" y="160" width="20" height="20" fill="azure"/>
  <rect x="140" y="160" width="20" height="20" fill="azure"/>
  <rect x="160" y="160" width="20" height="20" fill="azure"/>
  <rect x="180" y="160" width="20" height="20" fill="azure"/>
  <rect x="200" y="160" width="20" height="20" fill="azure"/>
  <rect x="220" y="160" width="20" height="20" fill="azure"/>
  <rect x="240" y="160" width="20" height="20" fill="azure"/>
  <rect x="260" y="160" width="20" height="20" fill="azure"/>
  <rect x="280" y="160" width="20" height="20" fill="azure"/>
  <rect x="300" y="160" width="20" height="20" fill="azure"/>
  <rect x="320" y="160" width="20" height="20" fill="azure"/>
  <rect x="340" y="160" width="20" height="20" fill="azure"/>
  <rect x="360" y="160" width="20" height="20" fill="azure"/>
  <rect x="380" y="160" width="20" height="20" fill="azure"/>
  <rect x="400" y="160" width="20" height="20" fill="azure"/>
  <rect x="420" y="160" width="20" height="20" fill="azure"/>
  <rect x="440" y="160" width="20" height="20" fill="azure"/>
  <rect x="460" y="160" width="20" height="20" fill="azure"/>
  <rect x="480" y="160" width="20" height="20" fill="azure"/>
  <rect x="500" y="160" width="20" height="20" fill="azure"/>
  <rect x="520" y="160" width="20" height="20" fill="azure"/>
  <rect x="540" y="160" width="20" height="20" fill="azure"/>
  <rect x="560" y="160" width="20" height="20" fill="azure"/>
  <rect x="580" y="160" width="20" height="20" fill="azure"/>
  <rect x="0" y="180" width="20" height="20" fill="azure"/>
  <rect x="20" y="180" width="20" height="20" fill="azure"/>
  <rect x="40" y="180" width="20" height="20" fill="azure"/>
  <rect x="60" y="180" width="20" height="20" fill="azure"/>
  <rect x="80" y="180" width="20" height="20" fill="azure"/>
  <rect x="100" y="180" width="20" height="20" fill="azure"/>
  <rect x="120" y="180" width="20" height="20" fill="azure"/>
  <rect x="140" y="180" width="20" height="20" fill="azure"/>
  <rect x="160" y="180" width="20" height="20" fill="azure"/>
  <rect x="180" y="180" width="20" height="20" fill="azure"/>
  <rect x="200" y="180" width="20" height="20" fill="azure"/>
  <rect x="220" y="180" width="20" height="20" fill="azure"/>
  <rect x="240" y="180" width="20" height="20" fill="azure"/>
  <rect x="260" y="180" width="20" height="20" fill="azure"/>
  <rect x="280" y="180" width="20" height="20" fill="azure"/>
  <rect x="300" y="180" width="20" height="20" fill="azure"/>
  <rect x="320" y="180" width="20" height="20" fill="azure"/>
  <rect x="340" y="180" width="20" height="20" fill="azure"/>
  <rect x="360" y="180" width="20" height="20" fill="azure"/>
  <rect x="380" y="180" width="20" height="20" fill="azure"/>
  <rect x="400" y="180" width="20" height="20" fill="azure"/>
  <rect x="420" y="180" width="20" height="20" fill="azure"/>
  <rect x="440" y="180" width="20" height="20" fill="azure"/>
  <rect x="460" y="180" width="20" height="20" fill="azure"/>
  <rect x="480" y="180" width="20" height="20" fill="azure"/>
  <rect x="500" y="180" width="20" height="20" fill="azure"/>
  <rect x="520" y="180" width="20" height="20" fill="azure"/>
  <rect x="540" y="180" width="20" height="20" fill="azure"/>
  <rect x="560" y="180" width="20" height="20" fill="azure"/>
  <rect x="580" y="180" width="20" height="20" fill="azure"/>
  <rect x="0" y="200" width="20" height="20" fill="azure"/>
  <rect x="20" y="200" width="20" height="20" fill="azure"/>
  <rect x="40" y="200" width="20" height="20" fill="azure"/>
  <rect x="60" y="200" width="20" height="20" fill="azure"/>
  <rect x="80" y="200" width="20" height="20" fill="azure"/>
  <rect x="100" y="200" width="20" height="20" fill="azure"/>
  <rect x="120" y="200" width="20" height="20" fill="azure"/>
  <rect x="140" y="200" width="20" height="20" fill="azure"/>
  <rect x="160" y="200" width="20" height="20" fill="azure"/>
  <rect x="180" y="200" width="20" height="20" fill="azure"/>
  <rect x="200" y="200" width="20" height="20" fill="azure"/>
  <rect x="220" y="200" width="20" height="20" fill="azure"/>
  <rect x="240" y="200" width="20" height="20" fill="azure"/>
  <rect x="260" y="200" width="20" height="20" fill="azure"/>
  <rect x="280" y="200" width="20" height="20" fill="azure"/>
  <rect x="300" y="200" width="20" height="20" fill="azure"/>
  <rect x="320" y="200" width="20" height="20" fill="azure"/>
  <rect x="340" y="200" width="20" height="20" fill="azure"/>
  <rect x="360" y="200" width="20" height="20" fill="azure"/>
  <rect x="380" y="200" width="20" height="20" fill="azure"/>
  <rect x="400" y="200" width="20" height="20" fill="azure"/>
  <rect x="420" y="200" width="20" height="20" fill="azure"/>
  <rect x="440" y="200" width="20" height="20" fill="azure"/>
  <rect x="460" y="200" width="20" height="20" fill="azure"/>
  <rect x="480" y="200" width="20" height="20" fill="azure"/>
  <rect x="500" y="200" width="20" height="20" fill="azure"/>
  <rect x="520" y="200" width="20" height="20" fill="azure"/>
  <rect x="540" y="200" width="20" height="20" fill="azure"/>
  <rect x="560" y="200" width="20" height="20" fill="azure"/>
  <rect x="580" y="200" width="20" height="20" fill="azure"/>
  <rect x="0" y="220" width="20" height="20" fill="azure"/>
  <rect x="20" y="220" width="20" height="20" fill="azure"/>
  <rect x="40" y="220" width="20" height="20" fill="azure"/>
  <rect x="60" y="220" width="20" height="20" fill="azure"/>
  <rect x="80" y="220" width="20" height="20" fill="azure"/>
  <rect x="100" y="220" width="20" height="20" fill="azure"/>
  <rect x="120" y="220" width="20" height="20" fill="azure"/>
  <rect x="140" y="220" width="20" height="20" fill="azure"/>
  <rect x="160" y="220" width="20" height="20" fill="azure"/>
  <rect x="180" y="220" width="20" height="20" fill="azure"/>
  <rect x="200" y="220" width="20" height="20" fill="azure"/>
  <rect x="220" y="220" width="20" height="20" fill="azure"/>
  <rect x="240" y="220" width="20" height="20" fill="azure"/>
  <rect x="260" y="220" width="20" height="20" fill="azure"/>
  <rect x="280" y="220" width="20" height="20" fill="azure"/>
  <rect x="300" y="220" width="20" height="20" fill="azure"/>
  <rect x="320" y="220" width="20" height="20" fill="azure"/>
  <rect x="340" y="220" width="20" height="20" fill="azure"/>
  <rect x="360" y="220" width="20" height="20" fill="azure"/>
  <rect x="380" y="220" width="20" height="20" fill="azure"/>
  <rect x="400" y="220" width="20" height="20" fill="azure"/>
  <rect x="420" y="220" width="20" height="20" fill="azure"/>
  <rect x="440" y="220" width="20" height="20" fill="azure"/>
  <rect x="460" y="220" width="20" height="20" fill="azure"/>
  <rect x="480" y="220" width="20" height="20" fill="azure"/>
  <rect x="500" y="220" width="20" height="20" fill="azure"/>
  <rect x="520" y="220" width="20" height="20" fill="azure"/>
  <rect x="540" y="220" width="20" height="20" fill="azure"/>
  <rect x="560" y="220" width="20" height="20" fill="azure"/>
  <rect x="580" y="220" width="20" height="20" fill="azure"/>
  <rect x="0" y="240" width="20" height="20" fill="azure"/>
  <rect x="20" y="240" width="20" height="20" fill="azure"/>
  <rect x="40" y="240" width="20" height="20" fill="azure"/>
  <rect x="60" y="240" width="20" height="20" fill="azure"/>
  <rect x="80" y="240" width="20" height="20" fill="azure"/>
  <rect x="100" y="240" width="20" height="20" fill="azure"/>
  <rect x="120" y="240" width="20" height="20" fill="azure"/>
  <rect x="140" y="240" width="20" height="20" fill="azure"/>
  <rect x="160" y="240" width="20" height="20" fill="azure"/>
  <rect x="180" y="240" width="20" height="20" fill="azure"/>
  <rect x="200" y="240" width="20" height="20" fill="azure"/>
  <rect x="220" y="240" width="20" height="20" fill="azure"/>
  <rect x="240" y="240" width="20" height="20" fill="azure"/>
  <rect x="260" y="240" width="20" height="20" fill="azure"/>
  <rect x="280" y="240" width="20" height="20" fill="azure"/>
  <rect x="300" y="240" width="20" height="20" fill="azure"/>
  <rect x="320" y="240" width="20" height="20" fill="azure"/>
  <rect x="340" y="240" width="20" height="20" fill="azure"/>
  <rect x="360" y="240" width="20" height="20" fill="azure"/>
  <rect x="380" y="240" width="20" height="20" fill="azure"/>
  <rect x="400" y="240" width="20" height="20" fill="azure"/>
  <rect x="420" y="240" width="20" height="20" fill="azure"/>
  <rect x="440" y="240" width="20" height="20" fill="azure"/>
  <rect x="460" y="240" width="20" height="20" fill="azure"/>
  <rect x="480" y="240" width="20" height="20" fill="azure"/>
  <rect x="500" y="240" width="20" height="20" fill="azure"/>
  <rect x="520" y="240" width="20" height="20" fill="azure"/>
  <rect x="540" y="240" width="20" height="20" fill="azure"/>
  <rect x="560" y="240" width="20" height="20" fill="azure"/>
  <rect x="580" y="240" width="20" height="20" fill="azure"/>
  <rect x="0" y="260" width="20" height="20" fill="azure"/>
  <rect x="20" y="260" width="20" height="20" fill="azure"/>
  <rect x="40" y="260" width="20" height="20" fill="azure"/>
  <rect x="60" y="260" width="20" height="20" fill="azure"/>
  <rect x="80" y="260" width="20" height="20" fill="azure"/>
  <rect x="100" y="260" width="20" height="20" fill="azure"/>
  <rect x="120" y="260" width="20" height="20" fill="azure"/>
  <rect x="140" y="260" width="20" height="20" fill="azure"/>
  <rect x="160" y="260" width="20" height="20" fill="azure"/>
  <rect x="180" y="260" width="20" height="20" fill="azure"/>
  <rect x="200" y="260" width="20" height="20" fill="azure"/>
  <rect x="220" y="260" width="20" height="20" fill="azure"/>
  <rect x="240" y="260" width="20" height="20" fill="azure"/>
  <rect x="260" y="260" width="20" height="20" fill="azure"/>
  <rect x="280" y="260" width="20" height="20" fill="azure"/>
  <rect x="300" y="260" width="20" height="20" fill="azure"/>
  <rect x="320" y="260" width="20" height="20" fill="azure"/>
  <rect x="340" y="260" width="20" height="20" fill="azure"/>
  <rect x="360" y="260" width="20" height="20" fill="azure"/>
  <rect x="380" y="260" width="20" height="20" fill="azure"/>
  <rect x="400" y="260" width="20" height="20" fill="azure"/>
  <rect x="420" y="260" width="20" height="20" fill="azure"/>
  <rect x="440" y="260" width="20" height="20" fill="azure"/>
  <rect x="460" y="260" width="20" height="20" fill="azure"/>
  <rect x="480" y="260" width="20" height="20" fill="azure"/>
  <rect x="500" y="260" width="20" height="20" fill="azure"/>
  <rect x="520" y="260" width="20" height="20" fill="azure"/>
  <rect x="540" y="260" width="20" height="20" fill="azure"/>
  <rect x="560" y="260" width="20" height="20" fill="azure"/>
  <rect x="580" y="260" width="20" height="20" fill="azure"/>
  <rect x="0" y="280" width="20" height="20" fill="azure"/>
  <rect x="20" y="280" width="20" height="20" fill="azure"/>
  <rect x="40" y="280" width="20" height="20" fill="azure"/>
  <rect x="60" y="280" width="20" height="20" fill="azure"/>
  <rect x="80" y="280" width="20" height="20" fill="azure"/>
  <rect x="100" y="280" width="20" height="20" fill="azure"/>
  <rect x="120" y="280" width="20" height="20" fill="azure"/>
  <rect x="140" y="280" width="20" height="20" fill="azure"/>
  <rect x="160" y="280" width="20" height="20" fill="azure"/>
  <rect x="180" y="280" width="20" height="20" fill="azure"/>
  <rect x="200" y="280" width="20" height="20" fill="azure"/>
  <rect x="220" y="280" width="20" height="20" fill="azure"/>
  <rect x="240" y="280" width="20" height="20" fill="azure"/>
  <rect x="260" y="280" width="20" height="20" fill="azure"/>
  <rect x="280" y="280" width="20" height="20" fill="azure"/>
  <rect x="300" y="280" width="20" height="20" fill="azure"/>
  <rect x="320" y="280" width="20" height="20" fill="azure"/>
  <rect x="340" y="280" width="20" height="20" fill="azure"/>
  <rect x="360" y="280" width="20" height="20" fill="azure"/>
  <rect x="380" y="280" width="20" height="20" fill="azure"/>
  <rect x="400" y="280" width="20" height="20" fill="azure"/>
  <rect x="420" y="280" width="20" height="20" fill="azure"/>
  <rect x="440" y="280" width="20" height="20" fill="azure"/>
  <rect x="460" y="280" width="20" height="20" fill="azure"/>
  <rect x="480" y="280" width="20" height="20" fill="azure"/>
  <rect x="500" y="280" width="20" height="20" fill="azure"/>
  <rect x="520" y="280" width="20" height="20" fill="azure"/>
  <rect x="540" y="280" width="20" height="20" fill="azure"/>
  <rect x="560" y="280" width="20" height="20" fill="azure"/>
  <rect x="580" y="280" width="20" height="20" fill="azure"/>
  <rect x="0" y="300" width="20" height="20" fill="azure"/>
  <rect x="20" y="300" width="20" height="20" fill="azure"/>
  <rect x="40" y="300" width="20" height="20" fill="azure"/>
  <rect x="60" y="300" width="20" height="20" fill="azure"/>
  <rect x="80" y="300" width="20" height="20" fill="azure"/>
  <rect x="100" y="300" width="20" height="20" fill="azure"/>
  <rect x="120" y="300" width="20" height="20" fill="azure"/>
  <rect x="140" y="300" width="20" height="20" fill="azure"/>
  <rect x="160" y="300" width="20" height="20" fill="azure"/>
  <rect x="180" y="300" width="20" height="20" fill="azure"/>
  <rect x="200" y="300" width="20" height="20" fill="azure"/>
  <rect x="220" y="300" width="20" height="20" fill="azure"/>
  <rect x="240" y="300" width="20" height="20" fill="azure"/>
  <rect x="260" y="300" width="20" height="20" fill="azure"/>
  <rect x="280" y="300" width="20" height="20" fill="azure"/>
  <rect x="300" y="300" width="20" height="20" fill="azure"/>
  <rect x="320" y="300" width="20" height="20" fill="azure"/>
  <rect x="340" y="300" width="20" height="20" fill="azure"/>
  <rect x="360" y="300" width="20" height="20" fill="azure"/>
  <rect x="380" y="300" width="20" height="20" fill="azure"/>
  <rect x="400" y="300" width="20" height="20" fill="azure"/>
  <rect x="420" y="300" width="20" height="20" fill="azure"/>
  <rect x="440" y="300" width="20" height="20" fill="azure"/>
  <rect x="460" y="300" width="20" height="20" fill="azure"/>
  <rect x="480" y="300" width="20" height="20" fill="azure"/>
  <rect x="500" y="300" width="20" height="20" fill="azure"/>
  <rect x="520" y="300" width="20" height="20" fill="azure"/>
  <rect x="540" y="300" width="20" height="20" fill="azure"/>
  <rect x="560" y="300" width="20" height="20" fill="azure"/>
  <rect x="580" y="300" width="20" height="20" fill="azure"/>
  <rect x="0" y="320" width="20" height="20" fill="azure"/>
  <rect x="20" y="320" width="20" height="20" fill="azure"/>
  <rect x="40" y="320" width="20" height="20" fill="azure"/>
  <rect x="60" y="320" width="20" height="20" fill="azure"/>
  <rect x="80" y="320" width="20" height="20" fill="azure"/>
  <rect x="100" y="320" width="20" height="20" fill="azure"/>
  <rect x="120" y="320" width="20" height="20" fill="azure"/>
  <rect x="140" y="320" width="20" height="20" fill="azure"/>
  <rect x="160" y="320" width="20" height="20" fill="azure"/>
  <rect x="180" y="320" width="20" height="20" fill="azure"/>
  <rect x="200" y="320" width="20" height="20" fill="azure"/>
  <rect x="220" y="320" width="20" height="20" fill="azure"/>
  <rect x="240" y="320" width="20" height="20" fill="azure"/>
  <rect x="260" y="320" width="20" height="20" fill="azure"/>
  <rect x="280" y="320" width="20" height="20" fill="azure"/>
  <rect x="300" y="320" width="20" height="20" fill="azure"/>
  <rect x="320" y="320" width="20" height="20" fill="azure"/>
  <rect x="340" y="320" width="20" height="20" fill="azure"/>
  <rect x="360" y="320" width="20" height="20" fill="azure"/>
  <rect x="380" y="320" width="20" height="20" fill="azure"/>
  <rect x="400" y="320" width="20" height="20" fill="azure"/>
  <rect x="420" y="320" width="20" height="20" fill="azure"/>
  <rect x="440" y="320" width="20" height="20" fill="azure"/>
  <rect x="460" y="320" width="20" height="20" fill="azure"/>
  <rect x="480" y="320" width="20" height="20" fill="azure"/>
  <rect x="500" y="320" width="20" height="20" fill="azure"/>
  <rect x="520" y="320" width="20" height="20" fill="azure"/>
  <rect x="540" y="320" width="20" height="20" fill="azure"/>
  <rect x="560" y="320" width="20" height="20" fill="azure"/>
  <rect x="580" y="320" width="20" height="20" fill="azure"/>
  <rect x="0" y="340" width="20" height="20" fill="azure"/>
  <rect x="20" y="340" width="20" height="20" fill="azure"/>
  <rect x="40" y="340" width="20" height="20" fill="azure"/>
  <rect x="60" y="340" width="20" height="20" fill="azure"/>
  <rect x="80" y="340" width="20" height="20" fill="azure"/>
  <rect x="100" y="340" width="20" height="20" fill="azure"/>
  <rect x="120" y="340" width="20" height="20" fill="azure"/>
  <rect x="140" y="340" width="20" height="20" fill="azure"/>
  <rect x="160" y="340" width="20" height="20" fill="azure"/>
  <rect x="180" y="340" width="20" height="20" fill="azure"/>
  <rect x="200" y="340" width="20" height="20" fill="azure"/>
  <rect x="220" y="340" width="20" height="20" fill="azure"/>
  <rect x="240" y="340" width="20" height="20" fill="azure"/>
  <rect x="260" y="340" width="20" height="20" fill="azure"/>
  <rect x="280" y="340" width="20" height="20" fill="azure"/>
  <rect x="300" y="340" width="20" height="20" fill="azure"/>
  <rect x="320" y="340" width="20" height="20" fill="azure"/>
  <rect x="340" y="340" width="20" height="20" fill="azure"/>
  <rect x="360" y="340" width="20" height="20" fill="azure"/>
  <rect x="380" y="340" width="20" height="20" fill="azure"/>
  <rect x="400" y="340" width="20" height="20" fill="azure"/>
  <rect x="420" y="340" width="20" height="20" fill="azure"/>
  <rect x="440" y="340" width="20" height="20" fill="azure"/>
  <rect x="460" y="340" width="20" height="20" fill="azure"/>
  <rect x="480" y="340" width="20" height="20" fill="azure"/>
  <rect x="500" y="340" width="20" height="20" fill="azure"/>
  <rect x="520" y="340" width="20" height="20" fill="azure"/>
  <rect x="540" y="340" width="20" height="20" fill="azure"/>
  <rect x="560" y="340" width="20" height="20" fill="azure"/>
  <rect x="580" y="340" width="20" height="20" fill="azure"/>
</svg>